# xmcd
#
# Track frame offsets:
#	150
#	19318
#	35651
#	50133
#	67530
#	83669
#	98288
#	112667
#	127659
#	145298
#	160310
#	172432
#	187727
#	206177
#	220728
#	236894
#	251618
#	267645
#	282926
#	300228
#	318098
#	318803
#	319518
#	320388
#	321508
#	322378
#	323128
#	323908
#	324653
#	325453
#	326243
#	327093
#	328163
#	329088
#	329903
#	330723
#	331563
#	332403
#	333168
#	333908
#	334953
#	335923
#	336773
#	337608
#
# Disc length: 4509 seconds
#
# Revision: 1
# Processed by: cddbd v1.5.2PL0 Copyright (c) Steve Scherf et al.
# Submitted via: audiograbber 1.83.01
#
DISCID=a3119b2c
DTITLE=Various Artist - CDX Volume 615 (April 20, 2015)
DYEAR=2015
DGENRE=Country
TTITLE0=Kid Rock - First Kiss
TTITLE1=George Strait - Let It Go 
TTITLE2=Cole Swindell - Let Me See Ya Girl
TTITLE3=Darius Rucker - Southern Style [Radio Edit]
TTITLE4=Corey Smith - Feet Wet
TTITLE5=Tim Hadler - 1+1
TTITLE6=Chad Wilson - Alabama Will
TTITLE7=Allan Craig Miller - Between Saturday and Sunday
TTITLE8=Little Texas - Can't Get In A Hurry Here
TTITLE9=Leslie Cours Mather - Countrified 
TTITLE10=Josh Christina - Cry You A River
TTITLE11=Jerry Don - Down In Caroline
TTITLE12=Beau and Luci - Fire
TTITLE13=Joanna Mosca - Hand Out The Window
TTITLE14=Shelby County Line - Hey Hey Girl
TTITLE15=Simon Andersson - How Did I Get Here
TTITLE16=Shawn Crittenden - I'll Take Two Tens 
TTITLE17=Charee White - Keepin' It Country
TTITLE18=Donovan Lee - Marriage [Radio Edit]
TTITLE19=Sugarcane Jane - The Game
TTITLE20=Jeff Bates - Radio Liner - Home Town Country
TTITLE21=Jeff Bates - Radio Liner - Kickin' Country
TTITLE22=Jeff Bates - Radio Liner - More Of The Country You Love Next
TTITLE23=Jeff Bates - Radio Liner - My New Single
TTITLE24=Jeff Bates - Radio Liner - Super Country
TTITLE25=Jeff Bates - Radio Liner - The Best In Country Music
TTITLE26=Jeff Bates - Radio Liner - Today's Best Country
TTITLE27=Jeff Bates - Radio Liner - Today's Hot Country Music
TTITLE28=SaraBeth - Radio Liner - Home Town Country
TTITLE29=SaraBeth - Radio Liner - Kickin' Country
TTITLE30=SaraBeth - Radio Liner - More Of The Country You Love Next
TTITLE31=SaraBeth - Radio Liner - My New Single
TTITLE32=SaraBeth - Radio Liner - Super Country Greatest Hits
TTITLE33=SaraBeth - Radio Liner - The Best In Country Music
TTITLE34=SaraBeth - Radio Liner - Today's Best Country
TTITLE35=SaraBeth - Radio Liner - Today's Hot Country Music
TTITLE36=Casey Weston - Radio Liner - Home Town Country
TTITLE37=Casey Weston - Radio Liner - Kickin' Country
TTITLE38=Casey Weston - Radio Liner - More Of The Country You Love Next
TTITLE39=Casey Weston - Radio Liner - My New Single
TTITLE40=Casey Weston - Radio Liner - Super Country Greatest Hits of All Time
TTITLE41=Casey Weston - Radio Liner - The Best In Country Music
TTITLE42=Casey Weston - Radio Liner - Today's Best Country
TTITLE43=Casey Weston - Radio Liner - Today's Hot Country Music
EXTD=
EXTT0=
EXTT1=
EXTT2=
EXTT3=
EXTT4=
EXTT5=
EXTT6=
EXTT7=
EXTT8=
EXTT9=
EXTT10=
EXTT11=
EXTT12=
EXTT13=
EXTT14=
EXTT15=
EXTT16=
EXTT17=
EXTT18=
EXTT19=
EXTT20=
EXTT21=
EXTT22=
EXTT23=
EXTT24=
EXTT25=
EXTT26=
EXTT27=
EXTT28=
EXTT29=
EXTT30=
EXTT31=
EXTT32=
EXTT33=
EXTT34=
EXTT35=
EXTT36=
EXTT37=
EXTT38=
EXTT39=
EXTT40=
EXTT41=
EXTT42=
EXTT43=
PLAYORDER=
